<?xml version="1.0" encoding="UTF-8"?><svg id="b" xmlns="http://www.w3.org/2000/svg" xmlns:xlink="http://www.w3.org/1999/xlink" viewBox="0 0 256 256"><defs><style>.e{fill:#fff;}.f{fill:#ee482b;}.g{fill:#ffca0c;}.h{clip-path:url(#d);}.i{stroke:#ffca0c;stroke-miterlimit:10;stroke-width:11.73px;}.i,.j{fill:none;}.k{fill:#42b4e7;}</style><clipPath id="d"><path class="j" d="m128,0C76.57,0,34.87,42.98,34.87,96c0,63.3,93.14,160,93.14,160,0,0,93.13-97.84,93.13-160C221.13,42.98,179.44,0,128,0Z"/></clipPath></defs><g id="c"><g><g><g><path class="f" d="m128,0C76.57,0,34.87,42.98,34.87,96c0,63.3,93.14,160,93.14,160,0,0,93.13-97.84,93.13-160C221.13,42.98,179.44,0,128,0Z"/><g class="h"><g><polygon class="k" points="68.47 198.48 92.98 173.55 123.44 204.01 221.13 106.34 202.6 201.1 128 256 68.47 198.48"/><g><polyline class="i" points="62.52 204.01 92.98 173.55 123.44 204.01 184.37 143.09"/><polygon class="g" points="191.68 156.46 199.25 128.2 171 135.77 191.68 156.46"/></g></g></g></g><circle class="e" cx="128" cy="93.74" r="50.67"/><g><path class="k" d="m125.97,117.8h-5.93v2.77c0,.46.09,2.04.98,3.1.8.96,2.11,1.26,3.03,1.36.04.34.14.88.47,1.27.53.63,1.49.7,1.88.7v-1.03h0v1.03h3.26c.39,0,1.35-.07,1.87-.7.33-.39.44-.92.47-1.27.92-.09,2.23-.4,3.03-1.36.9-1.07.98-2.65.98-3.12v-2.76h-10.05Z"/><path class="k" d="m128.03,76.26c-9.32,0-16.91,7.59-16.91,16.91,0,2.78.69,5.44,2.09,8.09,0,.01,0,.02.01.03,0,.02.07.13.18.33.12.21.23.42.36.63.05.09.11.17.17.24.3.46.69,1.02,1.17,1.64.3.39.63.8.97,1.22,1.13,1.4,2.54,3.15,2.92,4.13.89,2.34,1.05,4.08,1.05,4.09l.15,1.89h15.67l.15-1.89s.16-1.75,1.05-4.09c.37-.98,1.78-2.73,2.92-4.13.34-.42.67-.83.97-1.22.48-.61.87-1.18,1.17-1.64.06-.08.12-.16.17-.24.12-.21.24-.42.36-.63.11-.19.17-.31.18-.33,0-.01,0-.02.01-.03,1.4-2.66,2.09-5.31,2.09-8.09,0-9.32-7.58-16.91-16.91-16.91Zm-2.86,8.16c-2.94.94-5.24,3.38-6,6.37-.17.66-.76,1.1-1.41,1.1-.12,0-.24-.01-.36-.05-.78-.2-1.25-.99-1.06-1.77,1-3.96,4.05-7.19,7.95-8.43.77-.24,1.59.18,1.83.95.24.77-.18,1.59-.95,1.83Z"/><path class="k" d="m128,72.77c1.14,0,2.06-.92,2.06-2.06v-6.05c0-1.14-.92-2.06-2.06-2.06s-2.06.92-2.06,2.06v6.05c0,1.14.92,2.06,2.06,2.06Z"/><path class="k" d="m110.41,78.85c.4.4.93.6,1.45.6s1.05-.2,1.45-.6c.8-.8.8-2.11,0-2.91l-4.28-4.28c-.8-.8-2.11-.8-2.91,0-.8.8-.8,2.11,0,2.91l4.28,4.28Z"/><path class="k" d="m107.23,93.54c0-1.14-.92-2.06-2.06-2.06h-6.05c-1.14,0-2.06.92-2.06,2.06s.92,2.06,2.06,2.06h6.05c1.14,0,2.06-.92,2.06-2.06Z"/><path class="k" d="m110.4,108.23l-4.28,4.28c-.8.8-.8,2.11,0,2.91.4.4.93.6,1.45.6s1.05-.2,1.45-.6l4.28-4.28c.8-.8.8-2.11,0-2.91-.8-.8-2.11-.8-2.91,0Z"/><path class="k" d="m145.59,108.23c-.8-.8-2.11-.8-2.91,0-.8.8-.8,2.11,0,2.91l4.28,4.28c.4.4.93.6,1.45.6s1.05-.2,1.45-.6c.8-.8.8-2.11,0-2.91l-4.28-4.28Z"/><path class="k" d="m156.88,91.49h-6.05c-1.14,0-2.06.92-2.06,2.06s.92,2.06,2.06,2.06h6.05c1.14,0,2.06-.92,2.06-2.06s-.92-2.06-2.06-2.06Z"/><path class="k" d="m144.14,79.46c.53,0,1.05-.2,1.45-.6l4.28-4.28c.8-.8.8-2.11,0-2.91-.8-.8-2.11-.8-2.91,0l-4.28,4.28c-.8.8-.8,2.11,0,2.91.4.4.93.6,1.45.6Z"/></g></g><rect class="j" width="256" height="256"/></g></g></svg>